<?xml version="1.0" encoding="utf-8"?>
<!-- Generator: Adobe Illustrator 24.0.1, SVG Export Plug-In . SVG Version: 6.00 Build 0)  -->
<svg version="1.1" id="圖層_1" xmlns="http://www.w3.org/2000/svg" xmlns:xlink="http://www.w3.org/1999/xlink" x="0px" y="0px"
	 viewBox="0 0 247.6 84.8" style="enable-background:new 0 0 247.6 84.8;" xml:space="preserve">
<style type="text/css">
	.st0{fill:#6A6969;}
	.st1{fill:#4981BF;}
	.st2{fill:#A0CB50;}
	.st3{fill:#FFFFFF;}
</style>
<g>
	<path d="M96.9,35.7l-1.2,1.1l-1.3-1c1.8-1.5,3.2-3.3,4-5.4l1.4,0.6c-0.5,1-0.9,1.8-1.4,2.5V43H97L96.9,35.7L96.9,35.7z M94.6,30.6
		c1.4-1.3,2.5-2.9,3.2-4.8l1.5,0.6c-0.9,2.3-2.1,4-3.4,5.2L94.6,30.6z M107.2,32.6h-6.6V31h11.1v1.6h-2.9v8.3c0,1.1-0.8,2-2.7,2
		c-1,0-2.2-0.2-3.6-0.6v-1.7c0.9,0.2,2.6,0.7,3.3,0.7c0.7,0,1.4-0.2,1.4-0.9C107.2,40.5,107.2,32.6,107.2,32.6z M101.2,26.7h9.8v1.6
		h-9.8V26.7z"/>
	<path d="M114.9,40.6v-9.4h1.5v9l1.4-0.5V28.1h-3.4v-1.6h8.4v1.6h-3.4v4.4h2.2v1.6h-2.2v5.1l2.9-0.9l0.5,1.6l-8.4,2.7l-0.6-1.5
		L114.9,40.6z M125.9,38c-0.9-1.7-1.4-3.5-1.6-5.4c-0.7,1.5-1.2,2.5-1.4,2.9l-1.5-0.6l0.8-1.4c1.1-2.1,1.6-4.6,1.6-7.7h1.6l-0.1,1.9
		h5.7v1.6h-1c-0.1,3.4-0.9,6.3-2.4,8.6c1.1,1.6,2.3,3,3.6,4.1l-1.4,0.9c-1.2-1.3-2.3-2.5-3.1-3.7c-0.9,1.1-2.3,2.4-4.3,3.7l-1.3-1.1
		c1.9-1.3,3.3-2.4,4.1-3.1L125.9,38z M125.5,29.4c0,3.4,0.4,5.8,1.3,7.2c0.6-1,1-2.2,1.3-3.5c0.2-0.9,0.3-2.2,0.4-3.6L125.5,29.4
		L125.5,29.4z"/>
	<path d="M138,31.8c0,0.1,0,0.2,0,0.3s0,0.3,0.1,0.4c0.7,1.1,1.5,2.5,1.5,4.2c0,1.4-0.7,2.6-2.4,2.6c-0.5,0-1.1-0.1-1.6-0.3v3.9H134
		V26.5l0.1-0.2h0.2h3.8l1,0.6L138,31.8z M137.3,28.2c0-0.1,0-0.1,0-0.2c0-0.3-0.2-0.3-0.4-0.3h-1.2h-0.1v0.1v9.4
		c0.5,0.3,1,0.5,1.5,0.5c0.9,0,1-0.8,1-1.1c0-0.9-0.6-2.3-1.7-4.2c0,0,0,0,0.1-0.1L137.3,28.2z M145.5,35.4h-1.9v1.1
		c0,0.5-0.1,1.1-0.3,1.8c-0.5,2-2,3.6-4.2,4.7l-1-1.3c0.7-0.3,1.3-0.6,1.8-1c1.4-1,2.2-2.4,2.2-4.2v-1.1h-1.9v-1.5h9.9v1.5h-3v4.8
		c0,0.4,0.2,0.9,0.9,0.9s0.7,0,1-0.2c0.1-0.1,0.1-0.8,0.2-2l1.6,0.3c-0.1,1.7-0.2,2.7-0.4,2.9c-0.4,0.4-0.8,0.6-1.1,0.6h-2.1
		c-0.7,0-1.6-0.7-1.6-1.6L145.5,35.4L145.5,35.4z M143.9,27.2v-1.3h1.6v1.3h3.9l1.3,0.6c0,1.1-0.2,2.4-0.7,3.9l-1.4-0.4
		c0.5-1.8,0.5-2.2,0.5-2.5c0-0.1-0.1-0.2-0.2-0.2H141c-0.1,0-0.1,0.1-0.1,0.1v2.8h-1.5v-4.1c0-0.2,0.1-0.3,0.3-0.3
		C139.7,27.2,143.9,27.2,143.9,27.2z M141.6,30.6h6.5v1.5h-6.5V30.6z"/>
	<path d="M154.7,39v-5h-1.6v-1.5h1.6v-4.4h-1.6v-1.5h4.8v1.5h-1.7v4.4h1.5V34h-1.5v4.4l1.6-0.8l0.8,1.3c-1.2,0.7-2.9,1.4-4.9,2.1
		l-0.7-1.4L154.7,39z M165.2,37c0.1,0.7,0.4,1.4,0.8,2c1-0.6,1.9-1.2,2.5-1.7l0.8,1.2c-0.6,0.6-1.4,1.1-2.3,1.7
		c1,0.8,2.1,1.4,3.2,1.8l-1.1,1.3c-3.1-1.3-4.9-3.4-5.3-6.2h-0.2l-1.1,1.2v3l2.2-0.4l0.3,1.5c-1.4,0.4-3.4,0.6-6,0.8l-0.3-1.5
		l2.3-0.2v-2c-0.9,0.6-1.8,1.1-2.6,1.4l-0.7-1.3c1.5-0.5,2.9-1.3,4-2.5h-2.1c-0.1,0-0.2-0.1-0.2-0.2v-3.4c0-0.1,0.1-0.2,0.2-0.2h9.3
		c0.1,0,0.2,0.1,0.2,0.2v3.4c0,0.1-0.1,0.2-0.2,0.2L165.2,37L165.2,37z M158.4,31.1h11.4v1.4h-11.4V31.1z M169.4,30.1
		c0,0.1-0.1,0.2-0.2,0.2H159c-0.1,0-0.2-0.1-0.2-0.2v-3.6c0-0.1,0.1-0.2,0.2-0.2h10.3c0.1,0,0.2,0.1,0.2,0.2L169.4,30.1L169.4,30.1z
		 M162,29.1v-1.5h-1.7c-0.1,0-0.1,0-0.1,0.1V29l0.1,0.1H162z M167.5,34.5h-6.7c0,0-0.1,0,0,0.1v1.1v0.1h6.7l0.1-0.1L167.5,34.5
		L167.5,34.5z M165,29.1v-1.5h-1.8v1.5C163.3,29.1,165,29.1,165,29.1z M166.3,27.5V29h1.6h0.1v-1.4l-0.1-0.1H166.3z"/>
	<path d="M174.2,38.8v-7h-1.7v-1.5h1.7v-4.2h1.6v4.2h1.4v1.5h-1.4V38l1.5-0.9l0.8,1.3c-1.1,0.8-2.8,1.6-5,2.5l-0.7-1.3L174.2,38.8z
		 M184.3,38.3h-1.6c-0.1,0.5-0.1,0.9-0.3,1.3c-0.6,1.6-2.2,2.8-4.8,3.6l-0.8-1.4c2.1-0.5,4-1.1,4.4-3.4h-2.4c-0.1,0-0.2-0.1-0.2-0.2
		v-5.7c0-0.1,0.1-0.2,0.2-0.2h9.8c0.1,0,0.2,0.1,0.2,0.2v5.7c0,0.1-0.1,0.2-0.2,0.2h-2.8v2.2c0,0.5,0.4,0.8,0.8,0.8h1
		c0.1,0,0.3-0.1,0.4-0.2c0,0,0.1-0.6,0.1-1.7l1.4,0.3c-0.1,1.5-0.2,2.3-0.3,2.5c-0.4,0.4-0.7,0.6-1,0.6h-2.5c-0.7,0-1.5-0.8-1.5-1.5
		L184.3,38.3L184.3,38.3z M180.6,29.8l-0.4-1.6H178v-1.4h4.7v-1.1h1.6v1.1h4.4v1.4h-1.9l-0.4,1.6h3.1v1.4h-11.7v-1.4
		C177.8,29.8,180.6,29.8,180.6,29.8z M180.1,34.6h7.2v-1l-0.1-0.1h-7c-0.1,0-0.1,0-0.1,0.1L180.1,34.6L180.1,34.6z M187.3,36h-7.2
		v0.9l0.1,0.1h7l0.1-0.1L187.3,36L187.3,36z M182.1,29.8h2.8l0.4-1.6h-3.6L182.1,29.8z"/>
	<path d="M193.8,33.4l-0.6,0.9l-1.5-0.6c1.6-2.3,2.7-5,3.1-7.8l1.6,0.2c-0.3,1.5-0.6,2.8-1,3.9v13h-1.6V33.4z M207.9,41.6
		c-1.7-1.2-3.3-2.6-4.6-4.2V43h-1.6v-5.5c-1.5,1.8-3.1,3.2-4.6,4l-1.1-1.2c2.1-1.2,3.9-2.7,5.3-4.5h-4.8v-1.6h5.3v-1.7h-4.2
		c-0.1,0-0.2-0.1-0.2-0.2v-5.7c0-0.1,0.1-0.2,0.2-0.2h10.3c0.2,0,0.2,0.1,0.2,0.2v5.7c0,0.2-0.1,0.2-0.2,0.2h-4.5v1.7h5.5v1.6h-5
		c1.3,1.8,3.1,3.4,5.4,4.7L207.9,41.6z M206.3,27.9h-7.4c-0.1,0-0.1,0-0.1,0.1v2.9c0,0.1,0,0.1,0.1,0.1h7.4c0.1,0,0.1,0,0.1-0.1
		L206.3,27.9L206.3,27.9z"/>
	<path d="M211.4,28.8h5.5v1.4h-5.5V28.8z M213,41.9v0.6h-1.4v-6.3c0-0.3,0.1-0.4,0.5-0.4h4.1c0.3,0,0.5,0.1,0.5,0.4v5.1
		c0,0.3-0.2,0.5-0.5,0.5C216.2,41.9,213,41.9,213,41.9z M211.7,26.5h4.7V28h-4.7V26.5z M211.9,31.2h4.4v1.4h-4.4V31.2z M211.9,33.6
		h4.5V35h-4.5V33.6z M215.3,37.5c0-0.2-0.1-0.2-0.3-0.2h-1.7c-0.2,0-0.2,0.1-0.2,0.2v3h1.9c0.2,0,0.3-0.1,0.3-0.3V37.5z M224,34.8
		v0.9h4.2v1.2h-9.4c-0.3,0-0.5-0.1-0.5-0.5v-4.1l-0.6,0.6l-1.1-0.9c0.9-0.8,1.5-1.9,1.9-3.3l1.4,0.4l-0.2,0.7h2.8l0.6-1.4l1.3,0.6
		l-0.3,0.8h4.1L228,31h-4v0.8h4V33h-4v0.7h4v1.1H224z M222.8,42c-1.7,0.6-3.6,1-5.7,1.1l-0.4-1.4c1.5,0,2.9-0.2,4.2-0.5l-2.1-1.3
		l0.7-1.1c1.1,0.8,2.1,1.4,3,1.8l1.1-0.5c0.8-0.4,1.4-0.8,2-1.2c0-0.2-0.1-0.2-0.2-0.2h-7.6v-1.3h9.4l1,0.6c0.1,0,0.1,0.1,0.1,0.1
		c0,0.1-0.8,1.5-3.8,3.1c1.1,0.2,2.5,0.4,4,0.4l-0.4,1.4c-1.6-0.1-3.2-0.3-4.7-0.8L222.8,42z M224.4,28h-3.1v0.8h-1.4V28h-2.5v-1.3
		h2.5v-0.8h1.4v0.8h3.1v-0.8h1.4v0.8h2.5V28h-2.5v0.8h-1.4V28z M219.7,31.7h2.8V31h-2.7c-0.1,0-0.2,0.1-0.2,0.2L219.7,31.7
		L219.7,31.7z M219.7,33.6h2.8v-0.7h-2.8V33.6z M222.6,34.8h-2.8v0.6c0,0.1,0.1,0.2,0.2,0.2h2.7L222.6,34.8L222.6,34.8z"/>
	<path d="M235.5,42.3V43H234v-5.2c-0.9,0.2-1.9,0.4-2.7,0.5l-0.5-1.5c2.3-0.3,4.4-0.8,6.3-1.5h-5.9v-1.4h7v-1.1H233v-1.4h5.1v-1.1
		h-6.3c-0.1,0-0.2-0.1-0.2-0.2v-3.5c0-0.1,0.1-0.2,0.2-0.2h15.1c0.1,0,0.2,0.1,0.2,0.2V30c0,0.1-0.1,0.2-0.2,0.2h-7.2v1.1h4.1v0.8
		l2.3-1.5l0.8,1.3l-3.3,2h4v1.4h-6.7l-2.6,1.1h7.4c0.4,0,0.5,0.2,0.5,0.5V43h-1.5v-0.7H235.5L235.5,42.3z M236.3,29v-1.4h-3.1
		c-0.1,0-0.1,0-0.1,0.1V29l0.1,0.1C233.2,29,236.3,29,236.3,29z M235.5,38.8h9.2V38c0-0.1-0.1-0.2-0.2-0.2h-8.8
		c-0.2,0-0.2,0.1-0.2,0.2V38.8L235.5,38.8z M244.7,40h-9.2v1h9.2V40z M241,29v-1.4h-3.3V29C237.8,29,241,29,241,29z M240.6,33.9
		l2.1-1.1h-3.1v1.1C239.7,33.9,240.6,33.9,240.6,33.9z M242.5,27.6V29h3l0.1-0.1v-1.3l-0.1-0.1h-3V27.6z"/>
</g>
<g>
	<path class="st0" d="M99.6,63.5h-3.4v-6.2h3.2v0.8h-2.3v1.8h2.2v0.8h-2.2v2.1h2.4L99.6,63.5L99.6,63.5z"/>
	<path class="st0" d="M104.2,63.5h-0.9v-2.6c0-0.6-0.2-1.2-0.9-1.2c-0.5,0-1,0.4-1,1.1v2.7h-0.9v-3.2c0-0.5,0-0.9,0-1.3h0.8v0.7l0,0
		c0.2-0.4,0.7-0.8,1.4-0.8c0.7,0,1.5,0.5,1.5,1.8V63.5L104.2,63.5z"/>
	<path class="st0" d="M109,59l-1.6,4.5h-0.9l-1.6-4.5h1l0.7,2.4c0.1,0.4,0.2,0.8,0.3,1.1l0,0c0.1-0.4,0.2-0.7,0.3-1.1L108,59H109z"
		/>
	<path class="st0" d="M110.1,58.3c-0.3,0-0.5-0.2-0.5-0.5s0.2-0.6,0.6-0.6s0.5,0.2,0.5,0.6C110.7,58.1,110.5,58.3,110.1,58.3z
		 M110.6,63.5h-0.9V59h0.9V63.5z"/>
	<path class="st0" d="M114.1,59.8c-0.1,0-0.2,0-0.3,0c-0.6,0-1,0.5-1,1.3v2.4h-0.9v-3.1c0-0.5,0-0.9,0-1.4h0.8v0.8l0,0
		c0.2-0.6,0.7-0.9,1.2-0.9c0.1,0,0.2,0,0.2,0C114.1,58.9,114.1,59.8,114.1,59.8z"/>
	<path class="st0" d="M118.6,61.2c0,1.7-1.1,2.4-2.1,2.4c-1.2,0-2-0.9-2-2.3c0-1.5,0.9-2.4,2.1-2.4
		C117.8,58.9,118.6,59.8,118.6,61.2z M116.6,59.6c-0.8,0-1.1,0.9-1.1,1.6c0,0.9,0.4,1.6,1.1,1.6s1.1-0.7,1.1-1.6
		C117.7,60.5,117.4,59.6,116.6,59.6z"/>
	<path class="st0" d="M123.2,63.5h-0.9v-2.6c0-0.6-0.2-1.2-0.9-1.2c-0.5,0-1,0.4-1,1.1v2.7h-0.9v-3.2c0-0.5,0-0.9,0-1.3h0.8v0.7l0,0
		c0.2-0.4,0.7-0.8,1.4-0.8c0.7,0,1.5,0.5,1.5,1.8V63.5L123.2,63.5z"/>
	<path class="st0" d="M130.6,63.5h-0.9v-2.6c0-0.7-0.2-1.2-0.8-1.2c-0.4,0-0.9,0.4-0.9,1v2.8h-1v-2.7c0-0.6-0.2-1.1-0.8-1.1
		c-0.4,0-0.9,0.4-0.9,1.1v2.7h-0.9v-3.2c0-0.5,0-0.9,0-1.3h0.8v0.7l0,0c0.2-0.4,0.6-0.8,1.3-0.8c0.6,0,1,0.3,1.2,0.8l0,0
		c0.3-0.5,0.7-0.8,1.4-0.8s1.4,0.5,1.4,1.9L130.6,63.5L130.6,63.5z"/>
	<path class="st0" d="M135,63.3c-0.3,0.1-0.8,0.3-1.4,0.3c-1.3,0-2.1-0.9-2.1-2.3c0-1.3,0.7-2.4,2-2.4s1.8,1,1.8,2.1
		c0,0.2,0,0.3,0,0.4h-2.8c0,1,0.6,1.4,1.4,1.4c0.5,0,0.8-0.1,1.1-0.2V63.3z M134.3,60.8c0-0.5-0.2-1.2-0.9-1.2s-1,0.7-1,1.2H134.3z"
		/>
	<path class="st0" d="M139.8,63.5h-0.9v-2.6c0-0.6-0.2-1.2-0.9-1.2c-0.5,0-1,0.4-1,1.1v2.7h-0.9v-3.2c0-0.5,0-0.9,0-1.3h0.8l0.1,0.7
		l0,0c0.2-0.4,0.7-0.8,1.4-0.8s1.5,0.5,1.5,1.8L139.8,63.5L139.8,63.5z"/>
	<path class="st0" d="M141.2,58.2l0.9-0.3V59h1.1v0.7h-1.1V62c0,0.6,0.2,0.8,0.6,0.8c0.2,0,0.3,0,0.4-0.1v0.7
		c-0.2,0.1-0.4,0.1-0.7,0.1c-0.4,0-0.7-0.1-0.9-0.3s-0.3-0.6-0.3-1.2v-2.3h-0.6V59h0.6V58.2L141.2,58.2z"/>
	<path class="st0" d="M147.1,62.4c0,0.4,0,0.8,0.1,1.1h-0.9l-0.1-0.5l0,0c-0.3,0.3-0.7,0.6-1.2,0.6c-0.8,0-1.3-0.6-1.3-1.3
		c0-1.1,1-1.7,2.5-1.7c0-0.3,0-1-0.9-1c-0.4,0-0.8,0.1-1.1,0.3l-0.2-0.6c0.3-0.2,0.8-0.4,1.4-0.4c1.3,0,1.7,0.9,1.7,1.8V62.4
		L147.1,62.4z M146.2,61.2c-0.7,0-1.6,0.1-1.6,0.9c0,0.5,0.3,0.7,0.7,0.7c0.5,0,0.9-0.4,0.9-0.9L146.2,61.2L146.2,61.2z"/>
	<path class="st0" d="M149.2,63.5h-0.9V57h0.9V63.5z"/>
	<path class="st0" d="M152.3,57.4c0.4-0.1,0.9-0.1,1.5-0.1c0.8,0,1.3,0.2,1.7,0.5c0.3,0.3,0.6,0.8,0.6,1.3c0,1.5-1.2,2-2.3,2
		c-0.2,0-0.4,0-0.5,0v2.4h-0.9L152.3,57.4L152.3,57.4z M153.2,60.3c0.1,0,0.3,0,0.5,0c0.9,0,1.4-0.4,1.4-1.2s-0.5-1.1-1.3-1.1
		c-0.3,0-0.5,0-0.6,0.1C153.2,58,153.2,60.3,153.2,60.3z"/>
	<path class="st0" d="M159.2,59.8c-0.1,0-0.2,0-0.3,0c-0.6,0-1,0.5-1,1.3v2.4H157v-3.1c0-0.5,0-0.9,0-1.4h0.8v0.8l0,0
		c0.2-0.6,0.7-0.9,1.2-0.9c0.1,0,0.2,0,0.2,0C159.2,58.9,159.2,59.8,159.2,59.8z"/>
	<path class="st0" d="M163.8,61.2c0,1.7-1.1,2.4-2.1,2.4c-1.2,0-2-0.9-2-2.3c0-1.5,0.9-2.4,2.1-2.4C163,58.9,163.8,59.8,163.8,61.2z
		 M161.7,59.6c-0.8,0-1.1,0.9-1.1,1.6c0,0.9,0.4,1.6,1.1,1.6c0.7,0,1.1-0.7,1.1-1.6C162.8,60.5,162.5,59.6,161.7,59.6z"/>
	<path class="st0" d="M164.9,58.2l0.9-0.3V59h1.1v0.7h-1.1V62c0,0.6,0.2,0.8,0.6,0.8c0.2,0,0.3,0,0.4-0.1v0.7
		c-0.2,0.1-0.4,0.1-0.7,0.1c-0.4,0-0.7-0.1-0.9-0.3s-0.3-0.6-0.3-1.2v-2.3h-0.6V59h0.6V58.2L164.9,58.2z"/>
	<path class="st0" d="M171,63.3c-0.3,0.1-0.8,0.3-1.4,0.3c-1.3,0-2.1-0.9-2.1-2.3c0-1.3,0.7-2.4,2-2.4s1.8,1,1.8,2.1
		c0,0.2,0,0.3,0,0.4h-2.8c0,1,0.6,1.4,1.4,1.4c0.5,0,0.8-0.1,1.1-0.2V63.3z M170.3,60.8c0-0.5-0.2-1.2-0.9-1.2s-1,0.7-1,1.2H170.3z"
		/>
	<path class="st0" d="M175.1,63.3c-0.2,0.1-0.6,0.2-1.1,0.2c-1.3,0-2.1-0.9-2.1-2.3c0-1.4,0.9-2.4,2.3-2.4c0.4,0,0.8,0.1,1,0.2
		l-0.2,0.7c-0.2-0.1-0.4-0.2-0.8-0.2c-0.9,0-1.4,0.7-1.4,1.6c0,1,0.6,1.6,1.4,1.6c0.4,0,0.6-0.1,0.8-0.2L175.1,63.3z"/>
	<path class="st0" d="M176.1,58.2l0.9-0.3V59h1.1v0.7H177V62c0,0.6,0.2,0.8,0.6,0.8c0.2,0,0.3,0,0.4-0.1v0.7
		c-0.2,0.1-0.4,0.1-0.7,0.1c-0.4,0-0.7-0.1-0.9-0.3s-0.3-0.6-0.3-1.2v-2.3h-0.6V59h0.6V58.2z"/>
	<path class="st0" d="M184.9,61.2c0,1.7-1.1,2.4-2.1,2.4c-1.2,0-2-0.9-2-2.3c0-1.5,0.9-2.4,2.1-2.4S184.9,59.8,184.9,61.2z
		 M182.9,59.6c-0.8,0-1.1,0.9-1.1,1.6c0,0.9,0.4,1.6,1.1,1.6c0.7,0,1.1-0.7,1.1-1.6C184,60.5,183.7,59.6,182.9,59.6z"/>
	<path class="st0" d="M189.5,63.5h-0.9v-2.6c0-0.6-0.2-1.2-0.9-1.2c-0.5,0-1,0.4-1,1.1v2.7h-0.9v-3.2c0-0.5,0-0.9,0-1.3h0.8v0.7l0,0
		c0.2-0.4,0.7-0.8,1.4-0.8s1.5,0.5,1.5,1.8L189.5,63.5L189.5,63.5z"/>
	<path class="st0" d="M197.1,63.5h-1l-0.6-1.8h-1.9l-0.5,1.8h-1l1.9-6.2h1.1L197.1,63.5z M195.4,60.9l-0.5-1.6
		c-0.1-0.4-0.2-0.8-0.3-1.2l0,0c-0.1,0.4-0.2,0.8-0.3,1.2l-0.5,1.6H195.4z"/>
	<path class="st0" d="M201.6,62.3c0,0.4,0,0.9,0,1.2h-0.8v-0.7l0,0c-0.2,0.5-0.7,0.8-1.4,0.8c-1,0-1.8-0.9-1.8-2.3
		c0-1.5,0.9-2.4,1.9-2.4c0.6,0,1,0.3,1.2,0.6l0,0V57h0.9L201.6,62.3L201.6,62.3z M200.7,60.8c0-0.7-0.5-1.2-1-1.2
		c-0.7,0-1.1,0.7-1.1,1.6c0,0.9,0.4,1.5,1.1,1.5c0.6,0,1-0.5,1-1.2V60.8L200.7,60.8z"/>
	<path class="st0" d="M208.9,63.5H208v-2.6c0-0.7-0.2-1.2-0.8-1.2c-0.4,0-0.9,0.4-0.9,1v2.8h-0.9v-2.7c0-0.6-0.2-1.1-0.8-1.1
		c-0.4,0-0.9,0.4-0.9,1.1v2.7h-0.9v-3.2c0-0.5,0-0.9,0-1.3h0.8v0.7l0,0c0.2-0.4,0.6-0.8,1.3-0.8c0.6,0,1,0.3,1.2,0.8l0,0
		c0.3-0.5,0.7-0.8,1.4-0.8s1.4,0.5,1.4,1.9L208.9,63.5L208.9,63.5z"/>
	<path class="st0" d="M210.6,58.3c-0.3,0-0.5-0.2-0.5-0.5s0.2-0.6,0.6-0.6c0.3,0,0.5,0.2,0.5,0.6C211.1,58.1,210.9,58.3,210.6,58.3z
		 M211,63.5h-0.9V59h0.9V63.5z"/>
	<path class="st0" d="M215.9,63.5H215v-2.6c0-0.6-0.2-1.2-0.9-1.2c-0.5,0-1,0.4-1,1.1v2.7h-0.9v-3.2c0-0.5,0-0.9,0-1.3h0.8v0.7l0,0
		c0.2-0.4,0.7-0.8,1.4-0.8s1.5,0.5,1.5,1.8L215.9,63.5L215.9,63.5z"/>
	<path class="st0" d="M217.6,58.3c-0.3,0-0.5-0.2-0.5-0.5s0.2-0.6,0.6-0.6c0.3,0,0.5,0.2,0.5,0.6C218.1,58.1,217.9,58.3,217.6,58.3z
		 M218.1,63.5h-0.9V59h0.9V63.5z"/>
	<path class="st0" d="M221.5,59.9c-0.2-0.1-0.5-0.3-0.9-0.3s-0.6,0.2-0.6,0.5s0.2,0.5,0.7,0.7c0.7,0.3,1.1,0.7,1.1,1.4
		c0,0.9-0.7,1.4-1.7,1.4c-0.5,0-0.9-0.1-1.2-0.3l0.2-0.7c0.2,0.1,0.6,0.3,1,0.3c0.5,0,0.7-0.2,0.7-0.6c0-0.3-0.2-0.5-0.7-0.8
		c-0.8-0.3-1.1-0.8-1.1-1.3c0-0.7,0.6-1.3,1.5-1.3c0.4,0,0.8,0.1,1.1,0.3L221.5,59.9z"/>
	<path class="st0" d="M223,58.2l0.9-0.3V59h1.1v0.7h-1.1V62c0,0.6,0.2,0.8,0.6,0.8c0.2,0,0.3,0,0.4-0.1v0.7
		c-0.2,0.1-0.4,0.1-0.7,0.1c-0.4,0-0.7-0.1-0.9-0.3S223,62.6,223,62v-2.3h-0.6V59h0.6V58.2L223,58.2z"/>
	<path class="st0" d="M228,59.8c-0.1,0-0.2,0-0.3,0c-0.6,0-1,0.5-1,1.3v2.4h-0.9v-3.1c0-0.5,0-0.9,0-1.4h0.8v0.8l0,0
		c0.2-0.6,0.7-0.9,1.2-0.9c0.1,0,0.2,0,0.2,0V59.8L228,59.8z"/>
	<path class="st0" d="M231.9,62.4c0,0.4,0,0.8,0.1,1.1h-0.9L231,63l0,0c-0.3,0.3-0.7,0.6-1.2,0.6c-0.8,0-1.3-0.6-1.3-1.3
		c0-1.1,1-1.7,2.5-1.7c0-0.3,0-1-0.9-1c-0.4,0-0.8,0.1-1.1,0.3l-0.2-0.6c0.3-0.2,0.8-0.4,1.4-0.4c1.3,0,1.7,0.9,1.7,1.8V62.4
		L231.9,62.4z M230.9,61.2c-0.7,0-1.6,0.1-1.6,0.9c0,0.5,0.3,0.7,0.7,0.7c0.5,0,0.9-0.4,0.9-0.9L230.9,61.2L230.9,61.2z"/>
	<path class="st0" d="M233.2,58.2l0.9-0.3V59h1.1v0.7h-1.1V62c0,0.6,0.2,0.8,0.6,0.8c0.2,0,0.3,0,0.4-0.1v0.7
		c-0.2,0.1-0.4,0.1-0.7,0.1c-0.4,0-0.7-0.1-0.9-0.3s-0.3-0.6-0.3-1.2v-2.3h-0.6V59h0.6V58.2z"/>
	<path class="st0" d="M236.5,58.3c-0.3,0-0.5-0.2-0.5-0.5s0.2-0.6,0.6-0.6c0.3,0,0.5,0.2,0.5,0.6C237,58.1,236.8,58.3,236.5,58.3z
		 M237,63.5h-1V59h0.9v4.5H237z"/>
	<path class="st0" d="M179.5,58.3c-0.3,0-0.5-0.2-0.5-0.5s0.2-0.6,0.6-0.6c0.3,0,0.5,0.2,0.5,0.6C180,58.1,179.8,58.3,179.5,58.3z
		 M180,63.5h-1V59h0.9v4.5H180z"/>
	<path class="st0" d="M242,61.2c0,1.7-1.1,2.4-2.1,2.4c-1.2,0-2-0.9-2-2.3c0-1.5,0.9-2.4,2.1-2.4C241.2,58.9,242,59.8,242,61.2z
		 M240,59.6c-0.8,0-1.1,0.9-1.1,1.6c0,0.9,0.4,1.6,1.1,1.6c0.7,0,1.1-0.7,1.1-1.6C241.1,60.5,240.7,59.6,240,59.6z"/>
	<path class="st0" d="M246.6,63.5h-0.9v-2.6c0-0.6-0.2-1.2-0.9-1.2c-0.5,0-1,0.4-1,1.1v2.7h-0.9v-3.2c0-0.5,0-0.9,0-1.3h0.8l0.1,0.7
		l0,0c0.2-0.4,0.7-0.8,1.4-0.8s1.5,0.5,1.5,1.8L246.6,63.5L246.6,63.5z"/>
	<path class="st0" d="M99.6,76.6h-3.4v-6.2h3.2v0.8h-2.3V73h2.2v0.8h-2.2v2.1h2.4L99.6,76.6L99.6,76.6z"/>
	<path class="st0" d="M104,72.2l-1.4,2.2l1.4,2.3h-1.1l-0.6-1c-0.1-0.2-0.3-0.5-0.4-0.7l0,0c-0.1,0.3-0.3,0.5-0.4,0.8l-0.5,0.9h-1
		l1.4-2.3l-1.4-2.2h1l0.5,0.9c0.1,0.3,0.3,0.5,0.4,0.7l0,0c0.1-0.3,0.3-0.5,0.4-0.7l0.5-0.9C102.8,72.2,104,72.2,104,72.2z"/>
	<path class="st0" d="M107.9,76.5c-0.3,0.1-0.8,0.3-1.4,0.3c-1.3,0-2.1-0.9-2.1-2.3c0-1.3,0.7-2.4,2-2.4s1.8,1,1.8,2.1
		c0,0.2,0,0.3,0,0.4h-2.8c0,1,0.6,1.4,1.4,1.4c0.5,0,0.8-0.1,1.1-0.2V76.5z M107.3,74c0-0.5-0.2-1.2-0.9-1.2c-0.7,0-1,0.7-1,1.2
		H107.3z"/>
	<path class="st0" d="M112.1,76.5c-0.2,0.1-0.6,0.2-1.2,0.2c-1.3,0-2.1-0.9-2.1-2.3s0.9-2.4,2.3-2.4c0.4,0,0.8,0.1,1,0.2l-0.2,0.7
		c-0.2-0.1-0.4-0.2-0.8-0.2c-0.9,0-1.4,0.7-1.4,1.6c0,1,0.6,1.6,1.4,1.6c0.4,0,0.6-0.1,0.8-0.2L112.1,76.5z"/>
	<path class="st0" d="M116.5,75.4c0,0.5,0,0.9,0,1.3h-0.8v-0.6l0,0c-0.2,0.3-0.6,0.7-1.3,0.7c-0.8,0-1.4-0.5-1.4-1.9v-2.7h0.9v2.5
		c0,0.8,0.2,1.3,0.8,1.3c0.4,0,0.9-0.3,0.9-1v-2.8h0.9V75.4L116.5,75.4z"/>
	<path class="st0" d="M117.9,71.4l0.9-0.3v1.1h1.1v0.7h-1.1v2.3c0,0.6,0.2,0.8,0.6,0.8c0.2,0,0.3,0,0.4-0.1v0.7
		c-0.2,0.1-0.4,0.1-0.7,0.1c-0.4,0-0.7-0.1-0.9-0.3c-0.2-0.2-0.3-0.6-0.3-1.2v-2.3h-0.6v-0.7h0.6V71.4L117.9,71.4z"/>
	<path class="st0" d="M121.2,71.5c-0.3,0-0.5-0.2-0.5-0.5s0.2-0.6,0.6-0.6s0.5,0.2,0.5,0.6C121.8,71.3,121.5,71.5,121.2,71.5z
		 M121.7,76.6h-0.9v-4.5h0.9V76.6z"/>
	<path class="st0" d="M126.5,72.2l-1.6,4.5H124l-1.6-4.5h1l0.7,2.4c0.1,0.4,0.2,0.8,0.3,1.1l0,0c0.1-0.4,0.2-0.7,0.3-1.1l0.7-2.4
		H126.5L126.5,72.2z"/>
	<path class="st0" d="M130.4,76.5c-0.3,0.1-0.8,0.3-1.4,0.3c-1.3,0-2.1-0.9-2.1-2.3c0-1.3,0.7-2.4,2-2.4c1.3,0,1.8,1,1.8,2.1
		c0,0.2,0,0.3,0,0.4h-2.8c0,1,0.6,1.4,1.4,1.4c0.5,0,0.8-0.1,1.1-0.2V76.5z M129.8,74c0-0.5-0.2-1.2-0.9-1.2s-1,0.7-1,1.2H129.8z"/>
	<path class="st0" d="M137.5,70.5l-1.9,3.6v2.6h-0.9v-2.6l-1.8-3.6h1.1l0.7,1.6c0.2,0.5,0.4,0.8,0.5,1.3l0,0
		c0.2-0.4,0.3-0.8,0.5-1.3l0.7-1.6H137.5L137.5,70.5z"/>
	<path class="st0" d="M141.8,75.4c0,0.5,0,0.9,0,1.3H141v-0.6l0,0c-0.2,0.3-0.6,0.7-1.3,0.7c-0.8,0-1.4-0.5-1.4-1.9v-2.7h0.9v2.5
		c0,0.8,0.2,1.3,0.8,1.3c0.4,0,0.9-0.3,0.9-1v-2.8h0.9C141.8,72.2,141.8,75.4,141.8,75.4z"/>
	<path class="st0" d="M146.1,75.6c0,0.4,0,0.8,0.1,1.1h-0.9l-0.1-0.5l0,0c-0.3,0.4-0.7,0.6-1.2,0.6c-0.8,0-1.3-0.6-1.3-1.3
		c0-1.1,1-1.7,2.5-1.7c0-0.3,0-1-0.9-1c-0.4,0-0.8,0.1-1.1,0.3l-0.2-0.6c0.3-0.2,0.8-0.4,1.4-0.4c1.3,0,1.7,0.9,1.7,1.8V75.6z
		 M145.2,74.4c-0.7,0-1.6,0.1-1.6,0.9c0,0.5,0.3,0.7,0.7,0.7c0.5,0,0.9-0.4,0.9-0.9L145.2,74.4L145.2,74.4z"/>
	<path class="st0" d="M151,76.6h-1V74c0-0.6-0.2-1.2-0.9-1.2c-0.5,0-1,0.4-1,1.1v2.7h-0.9v-3.2c0-0.5,0-0.9,0-1.3h0.8l0.1,0.7l0,0
		c0.2-0.4,0.7-0.8,1.4-0.8s1.5,0.5,1.5,1.8L151,76.6L151,76.6z"/>
	<path class="st0" d="M153.3,75.4c-0.2,0.8-0.6,1.8-0.9,2.3l-0.6,0.1c0.2-0.6,0.5-1.6,0.6-2.3L153.3,75.4z"/>
	<path class="st0" d="M158.9,73.7c0.5,0.2,0.7,0.6,0.9,1.3c0.2,0.8,0.3,1.5,0.5,1.7h-1c-0.1-0.2-0.2-0.7-0.4-1.5s-0.5-1.1-1.1-1.1
		h-0.6v2.6h-0.9v-6.1c0.4-0.1,0.9-0.1,1.5-0.1c0.8,0,1.4,0.1,1.8,0.5c0.3,0.3,0.5,0.7,0.5,1.2C160,72.9,159.5,73.5,158.9,73.7
		L158.9,73.7z M157.8,73.3c0.8,0,1.3-0.4,1.3-1.1c0-0.8-0.6-1.1-1.2-1.1c-0.3,0-0.5,0-0.7,0.1v2.1H157.8L157.8,73.3z"/>
	<path class="st0" d="M160.8,76.1c0-0.4,0.3-0.6,0.6-0.6c0.4,0,0.6,0.3,0.6,0.6c0,0.4-0.2,0.6-0.6,0.6
		C161.1,76.7,160.8,76.5,160.8,76.1z"/>
	<path class="st0" d="M167.9,73.5c0,2.2-1.2,3.3-2.7,3.3c-1.6,0-2.6-1.3-2.6-3.2c0-2,1.1-3.2,2.7-3.2
		C167,70.4,167.9,71.7,167.9,73.5z M163.7,73.6c0,1.3,0.6,2.4,1.6,2.4c1.1,0,1.6-1.1,1.6-2.4c0-1.2-0.5-2.4-1.6-2.4
		C164.2,71.1,163.7,72.3,163.7,73.6z"/>
	<path class="st0" d="M168.7,76.1c0-0.4,0.3-0.6,0.6-0.6c0.4,0,0.6,0.3,0.6,0.6c0,0.4-0.2,0.6-0.6,0.6S168.7,76.5,168.7,76.1z"/>
	<path class="st0" d="M174.9,76.5c-0.3,0.1-0.8,0.3-1.5,0.3c-1.7,0-2.9-1.1-2.9-3.1c0-2.1,1.3-3.3,3-3.3c0.7,0,1.1,0.2,1.3,0.2
		l-0.2,0.8c-0.3-0.1-0.6-0.2-1.1-0.2c-1.2,0-2.1,0.8-2.1,2.4c0,1.5,0.8,2.4,2.1,2.4c0.4,0,0.9-0.1,1.1-0.2L174.9,76.5z"/>
	<path class="st0" d="M175.6,76.1c0-0.4,0.3-0.6,0.6-0.6c0.4,0,0.6,0.3,0.6,0.6c0,0.4-0.2,0.6-0.6,0.6
		C175.9,76.7,175.6,76.5,175.6,76.1z"/>
	<path class="st0" d="M180.8,77.8c-0.5-0.7-1.1-1.9-1.1-3.7c0-1.8,0.6-3,1.1-3.8h0.7c-0.6,0.9-1.1,2.1-1.1,3.8
		c0,1.6,0.5,2.8,1.1,3.7H180.8z"/>
	<path class="st0" d="M186.1,71.3h-1.7v5.4h-0.9v-5.4h-1.7v-0.8h4.3L186.1,71.3L186.1,71.3z"/>
	<path class="st0" d="M189.9,75.6c0,0.4,0,0.8,0.1,1.1h-0.9l-0.1-0.5l0,0c-0.3,0.4-0.7,0.6-1.2,0.6c-0.8,0-1.3-0.6-1.3-1.3
		c0-1.1,1-1.7,2.5-1.7c0-0.3,0-1-0.9-1c-0.4,0-0.8,0.1-1.1,0.3l-0.2-0.6c0.3-0.2,0.8-0.4,1.4-0.4c1.3,0,1.7,0.9,1.7,1.8V75.6
		L189.9,75.6z M188.9,74.4c-0.7,0-1.6,0.1-1.6,0.9c0,0.5,0.3,0.7,0.7,0.7c0.5,0,0.9-0.4,0.9-0.9L188.9,74.4L188.9,74.4z"/>
	<path class="st0" d="M191.5,71.5c-0.3,0-0.5-0.2-0.5-0.5s0.2-0.6,0.6-0.6c0.3,0,0.5,0.2,0.5,0.6C192.1,71.3,191.9,71.5,191.5,71.5z
		 M192,76.6h-1v-4.5h0.9v4.5H192z"/>
	<path class="st0" d="M198.9,72.2l-1.4,4.5h-0.9l-0.6-2c-0.1-0.5-0.2-0.9-0.3-1.4l0,0c-0.1,0.5-0.2,1-0.3,1.4l-0.6,2H194l-1.3-4.5h1
		l0.5,2.1c0.1,0.5,0.2,1,0.3,1.4l0,0c0.1-0.5,0.2-1,0.4-1.4l0.6-2.1h0.8l0.6,2.1c0.1,0.5,0.3,1,0.3,1.5l0,0c0.1-0.5,0.2-0.9,0.3-1.5
		l0.5-2.1H198.9L198.9,72.2L198.9,72.2z"/>
	<path class="st0" d="M202.8,75.6c0,0.4,0,0.8,0.1,1.1H202l-0.1-0.5l0,0c-0.3,0.4-0.7,0.6-1.2,0.6c-0.8,0-1.3-0.6-1.3-1.3
		c0-1.1,1-1.7,2.5-1.7c0-0.3,0-1-0.9-1c-0.4,0-0.8,0.1-1.1,0.3l-0.2-0.6c0.3-0.2,0.8-0.4,1.4-0.4c1.3,0,1.7,0.9,1.7,1.8L202.8,75.6
		L202.8,75.6z M201.9,74.4c-0.7,0-1.6,0.1-1.6,0.9c0,0.5,0.3,0.7,0.7,0.7c0.5,0,0.9-0.4,0.9-0.9L201.9,74.4L201.9,74.4z"/>
	<path class="st0" d="M207.7,76.6h-0.9V74c0-0.6-0.2-1.2-0.9-1.2c-0.5,0-1,0.4-1,1.1v2.7H204v-3.2c0-0.5,0-0.9,0-1.3h0.8v0.7l0,0
		c0.2-0.4,0.7-0.8,1.4-0.8s1.5,0.5,1.5,1.8V76.6L207.7,76.6z"/>
	<path class="st0" d="M209.2,70.3c0.5,0.7,1.1,1.9,1.1,3.7c0,1.8-0.6,3-1.1,3.7h-0.7c0.6-0.9,1.1-2.1,1.1-3.7c0-1.7-0.5-2.9-1.1-3.7
		H209.2z"/>
</g>
<g>
	<path class="st1" d="M42.4,42.4L3.3,58.8c-1.9-4.6-3-9.5-3.3-14.5c0-0.6,0-1.3,0-1.9C0,19,19,0,42.4,0c23.3,0,42.4,19,42.4,42.4
		c0,3.1-0.5,6.6-1.2,9.6L42.4,42.4z"/>
	<path class="st2" d="M49,36.3l15.1,19.6l19.6-4.1C79.4,71,62,84.9,42.3,84.9C23.7,84.9,7,72.5,1.7,54.8L36,55.7L49,36.3z"/>
	<path class="st3" d="M0,44.5l14.4-0.1C20,36,25.6,27.7,31.1,19.3c1-1,1.7-1.1,2.6-0.8l4.4,4.7L20.8,47.6L0.2,47.5L0,44.5z"/>
	<polygon class="st2" points="1.1,52.9 29.1,52.9 49.9,22 71.3,52.9 83.1,52.9 82.5,54.5 68.8,54.5 49.9,27.2 30.8,55 1.6,54.8 	"/>
	<polygon class="st3" points="2,56.1 1.6,54.8 30.7,54.6 49.9,27.1 68.9,54.6 82.9,54.6 81.7,57.8 62.5,57.8 49.2,38.9 37.4,57.4 
		2.5,57.4 	"/>
	<path class="st3" d="M1.1,52.9l-0.3-1.5l-0.2-1.7l21.9,0.1L47.6,12c0.6-0.5,1-0.9,2.2-0.8c0.6,0.1,1.1,0.2,2,1.1L77.9,50h6.2
		l-0.7,2.8H71.3L49.7,22.3L29.2,53L1.1,52.9z"/>
</g>
</svg>
